<svg width="64" height="64" viewBox="0 0 64 64" fill="none" xmlns="http://www.w3.org/2000/svg">
<path d="M44.9 44.2C44.8318 44.4324 44.7175 44.6487 44.5638 44.8359C44.41 45.0231 44.2201 45.1773 44.0053 45.2894C43.7906 45.4014 43.5554 45.469 43.3139 45.488C43.0725 45.507 42.8296 45.4771 42.6 45.4H42.5C42.0504 45.2078 41.6922 44.8496 41.5 44.4H41.4L37.6 38.2C37.4349 37.9415 37.1772 37.756 36.8796 37.6816C36.582 37.6072 36.2673 37.6496 36 37.8C35.7505 37.9961 35.5751 38.2711 35.5024 38.58C35.4298 38.8889 35.4642 39.2132 35.6 39.5L39.4 45.6L40 46.5L39.8 46.9C39.6099 47.2086 39.3311 47.4525 39 47.6C38.7961 47.7384 38.5593 47.8206 38.3134 47.8381C38.0676 47.8557 37.8215 47.808 37.6 47.7C37.1629 47.5405 36.8045 47.218 36.6 46.8H36.5L32.7 40.5C32.6459 40.3266 32.5531 40.1677 32.4287 40.0354C32.3042 39.9031 32.1514 39.8007 31.9816 39.7361C31.8119 39.6714 31.6297 39.6461 31.4487 39.6621C31.2678 39.6781 31.0928 39.735 30.9371 39.8285C30.7813 39.9219 30.6488 40.0495 30.5495 40.2017C30.4503 40.3538 30.3868 40.5264 30.364 40.7067C30.3412 40.8869 30.3595 41.0699 30.4177 41.242C30.476 41.414 30.5725 41.5707 30.7 41.7L34.4 48L34.7 48.5V48.9C34.4824 49.184 34.2104 49.422 33.9 49.6C33.4483 49.8065 32.9338 49.8279 32.4665 49.6597C31.9993 49.4915 31.6164 49.147 31.4 48.7L27.8 42.7C27.6295 42.4706 27.3827 42.3095 27.1041 42.2459C26.8254 42.1822 26.5332 42.2201 26.28 42.3527C26.0268 42.4854 25.8293 42.704 25.7229 42.9693C25.6166 43.2347 25.6085 43.5292 25.7 43.8L29.2 49.6L29 50C28.8775 50.2195 28.7103 50.4109 28.5093 50.5619C28.3084 50.7128 28.078 50.82 27.833 50.8765C27.5881 50.9331 27.3341 50.9377 27.0872 50.89C26.8404 50.8424 26.6063 50.7436 26.4 50.6C26.0914 50.4099 25.8475 50.1311 25.7 49.8H25.6L19.4 39.3C19.282 39.1154 19.1194 38.9636 18.9271 38.8587C18.7347 38.7538 18.5191 38.6992 18.3 38.7H13.5V22.8H25.6L20.8 27.5C20.5938 27.6888 20.4273 27.9169 20.3104 28.1708C20.1935 28.4248 20.1285 28.6995 20.1192 28.979C20.1099 29.2584 20.1565 29.5369 20.2562 29.7981C20.3559 30.0593 20.5068 30.2979 20.7 30.5L21.1 30.8L21.8 31.2C22.8004 31.888 23.9859 32.2563 25.2 32.2563C26.4141 32.2563 27.5996 31.888 28.6 31.2L35.3 26.9L44.8 42.8C44.9154 43.0128 44.984 43.2478 45.0012 43.4892C45.0185 43.7306 44.984 43.973 44.9 44.2V44.2Z" fill="white"/>
<path d="M45.1 39L36.6 24.9C36.5337 24.7553 36.4367 24.6267 36.3159 24.5231C36.195 24.4195 36.0531 24.3434 35.9 24.3C35.7289 24.2578 35.5505 24.2539 35.3777 24.2885C35.2049 24.3231 35.0418 24.3953 34.9 24.5L27.1 29.5C26.4498 29.8875 25.7069 30.092 24.95 30.092C24.1931 30.092 23.4502 29.8875 22.8 29.5L22.3 29.2L30.9 20.9C31.5112 20.2858 32.3339 19.9281 33.2 19.9H41.8C42.25 19.9045 42.6936 20.0068 43.1 20.2L50.6 23.3V39H45.1Z" fill="white"/>
<g style="mix-blend-mode:darken">
<path d="M3 18H13V42H3V18ZM51 18H61V42H51V18Z" fill="#4299E1"/>
</g>
<path d="M44.8 42.8L35.3 26.9L28.6 31.2C27.5996 31.888 26.4141 32.2563 25.2 32.2563C23.9859 32.2563 22.8004 31.888 21.8 31.2L21.1 30.8L20.7 30.5C20.5068 30.2979 20.3559 30.0593 20.2562 29.7981C20.1565 29.5369 20.1099 29.2584 20.1192 28.979C20.1285 28.6995 20.1935 28.4248 20.3104 28.1708C20.4273 27.9169 20.5938 27.6888 20.8 27.5L25.6 22.8H13.5V24.8H22.6L26 25C25.2 25.8 24.3 24.5 21 29C21.9944 29.6647 23.0298 30.2659 24.1 30.8V31C26.2 32.3 27.5 30.8 28.1 31L33.1 27L42.9 44.8C43 44.9 43 44.9 43 45L43.6 45.4H43.7C44.7 45.7 44.7 45.2 45 44.2C45.0691 43.966 45.087 43.7198 45.0525 43.4782C45.018 43.2366 44.9319 43.0053 44.8 42.8V42.8Z" fill="#DEE0E2"/>
<path d="M60.8 17.4H51.3C50.9817 17.4 50.6765 17.5264 50.4515 17.7515C50.2264 17.9765 50.1 18.2817 50.1 18.6V21L43.7 18.4C43.038 18.1137 42.3209 17.9772 41.6 18H33.4C32.6829 17.9784 31.9687 18.0999 31.299 18.3575C30.6294 18.615 30.0178 19.0034 29.5 19.5L28.1 20.9H13.9V18.6C13.9 18.2817 13.7736 17.9765 13.5485 17.7515C13.3235 17.5264 13.0183 17.4 12.7 17.4H3.2C3.04241 17.4 2.88637 17.431 2.74078 17.4913C2.59519 17.5517 2.4629 17.64 2.35147 17.7515C2.24004 17.8629 2.15165 17.9952 2.09134 18.1408C2.03104 18.2864 2 18.4424 2 18.6V41.9C2 42.2183 2.12643 42.5235 2.35147 42.7485C2.57652 42.9736 2.88174 43.1 3.2 43.1H12.7C13.0183 43.1 13.3235 42.9736 13.5485 42.7485C13.7736 42.5235 13.9 42.2183 13.9 41.9V41H18L23.6 50.4C23.9838 51.0466 24.5235 51.5868 25.1699 51.9711C25.8162 52.3554 26.5486 52.5716 27.3 52.6C27.9435 52.5884 28.5758 52.4291 29.148 52.1344C29.7202 51.8396 30.217 51.4173 30.6 50.9L31.5 51.3L32.9 51.5C33.6043 51.4869 34.294 51.2968 34.9056 50.9473C35.5172 50.5979 36.0311 50.1001 36.4 49.5H36.6L37.9 49.7C38.6231 49.7138 39.3371 49.536 39.9693 49.1848C40.6016 48.8335 41.1297 48.3213 41.5 47.7H41.6V47.4L42.7 47.6C43.2469 47.6002 43.7884 47.4909 44.2924 47.2786C44.7965 47.0664 45.253 46.7554 45.6351 46.364C46.0171 45.9726 46.317 45.5088 46.5171 44.9997C46.7171 44.4907 46.8133 43.9468 46.8 43.4C46.8125 42.7767 46.6753 42.1594 46.4 41.6L46.1 41.1H50V42C50 42.3183 50.1264 42.6235 50.3515 42.8485C50.5765 43.0736 50.8817 43.2 51.2 43.2H60.7C60.8746 43.2153 61.0503 43.1921 61.215 43.1322C61.3797 43.0723 61.5292 42.977 61.6531 42.8531C61.777 42.7292 61.8723 42.5797 61.9322 42.415C61.9921 42.2503 62.0153 42.0746 62 41.9V18.6C62 18.4424 61.969 18.2864 61.9087 18.1408C61.8484 17.9952 61.76 17.8629 61.6485 17.7515C61.5371 17.64 61.4048 17.5517 61.2592 17.4913C61.1136 17.431 60.9576 17.4 60.8 17.4V17.4ZM11.7 41H4V19.4H11.7V41ZM44.9 44.2C44.8318 44.4324 44.7175 44.6487 44.5638 44.8359C44.41 45.0231 44.2201 45.1773 44.0053 45.2894C43.7906 45.4014 43.5554 45.469 43.3139 45.488C43.0725 45.507 42.8296 45.4771 42.6 45.4H42.5C42.0504 45.2078 41.6922 44.8496 41.5 44.4H41.4L37.6 38.2C37.4349 37.9415 37.1772 37.756 36.8796 37.6816C36.582 37.6072 36.2673 37.6496 36 37.8C35.7505 37.9961 35.5751 38.2711 35.5024 38.58C35.4298 38.8889 35.4642 39.2132 35.6 39.5L39.4 45.6L40 46.5L39.8 46.9C39.6099 47.2086 39.3311 47.4525 39 47.6C38.7961 47.7384 38.5593 47.8206 38.3134 47.8381C38.0676 47.8557 37.8215 47.808 37.6 47.7C37.1629 47.5405 36.8045 47.218 36.6 46.8H36.5L32.7 40.5C32.6459 40.3266 32.5531 40.1677 32.4287 40.0354C32.3042 39.9031 32.1514 39.8007 31.9816 39.7361C31.8119 39.6714 31.6297 39.6461 31.4487 39.6621C31.2678 39.6781 31.0928 39.735 30.9371 39.8285C30.7813 39.9219 30.6488 40.0495 30.5495 40.2017C30.4503 40.3538 30.3868 40.5264 30.364 40.7067C30.3412 40.8869 30.3595 41.0699 30.4177 41.242C30.476 41.414 30.5725 41.5707 30.7 41.7L34.4 48L34.7 48.5V48.9C34.4824 49.184 34.2104 49.422 33.9 49.6C33.4483 49.8065 32.9338 49.8279 32.4665 49.6597C31.9993 49.4915 31.6164 49.147 31.4 48.7L27.8 42.7C27.6295 42.4706 27.3827 42.3095 27.1041 42.2459C26.8254 42.1822 26.5332 42.2201 26.28 42.3527C26.0268 42.4854 25.8293 42.704 25.7229 42.9693C25.6166 43.2347 25.6085 43.5292 25.7 43.8L29.2 49.6L29 50C28.8775 50.2195 28.7103 50.4109 28.5093 50.5618C28.3084 50.7128 28.078 50.82 27.833 50.8765C27.5881 50.9331 27.3341 50.9377 27.0872 50.89C26.8404 50.8424 26.6063 50.7436 26.4 50.6C26.0914 50.4099 25.8475 50.1311 25.7 49.8H25.6L19.4 39.3C19.282 39.1154 19.1194 38.9636 18.9271 38.8587C18.7347 38.7538 18.5191 38.6992 18.3 38.7H13.5V22.8H25.6L20.8 27.5C20.5938 27.6888 20.4273 27.9169 20.3104 28.1708C20.1935 28.4248 20.1285 28.6995 20.1192 28.979C20.1099 29.2584 20.1565 29.5369 20.2562 29.7981C20.3559 30.0593 20.5068 30.2979 20.7 30.5L21.1 30.8L21.8 31.2C22.8004 31.888 23.9859 32.2563 25.2 32.2563C26.4141 32.2563 27.5996 31.888 28.6 31.2L35.3 26.9L44.8 42.8C44.9154 43.0128 44.984 43.2478 45.0012 43.4892C45.0185 43.7306 44.984 43.973 44.9 44.2V44.2ZM45.1 39L36.6 24.9C36.5337 24.7553 36.4367 24.6267 36.3159 24.5231C36.195 24.4195 36.0531 24.3434 35.9 24.3C35.7289 24.2578 35.5505 24.2539 35.3777 24.2885C35.2049 24.3231 35.0418 24.3953 34.9 24.5L27.1 29.5C26.4498 29.8875 25.7069 30.092 24.95 30.092C24.1931 30.092 23.4502 29.8875 22.8 29.5L22.3 29.2L30.9 20.9C31.5112 20.2858 32.3339 19.9281 33.2 19.9H41.8C42.25 19.9045 42.6936 20.0068 43.1 20.2L50.6 23.3V39H45.1ZM60 41H52.3V19.4H60V41Z" fill="#4D535B"/>
</svg>
