<svg width="64" height="64" viewBox="0 0 64 64" fill="none" xmlns="http://www.w3.org/2000/svg">
<path d="M18 30L20 51H19V56H47V51H45L47 30H18Z" fill="white"/>
<path d="M47 30H18L18.2 33H44L42 52H44V56H47V51H45L47 30Z" fill="#DEE0E2"/>
<path d="M39.5 29.7L49.7 9.8L55.1 12.6L46.2 29.7" stroke="#4D535B" stroke-width="2" stroke-miterlimit="10"/>
<path d="M51 29.2L56.3 18.8L47.4 14.2L51 29.2ZM14.9 21.9L19.4 29.7L14.9 21.9ZM27.8 29.7L21.1 17.9L27.8 29.7ZM21 18.8L15.2 22.5L21 18.8ZM23.6 29.7L18.7 20.5L23.6 29.7ZM36.5 29.7L36.6 17.2L33.2 9.9L30 17.5V29.7H36.5ZM36.1 17.8L30 18.1L36.1 17.8ZM33.3 29.7L33.1 18.9L33.3 29.7ZM45.6 50.8L47.3 30H18.2L19.8 50.8H45.6ZM18.4 56.2H47.1V51.2H18.4V56.2V56.2ZM11.7 8.3C10.715 11.1747 10.6452 14.284 11.5 17.2C13 21.3 16.6 22.2 19.4 18.9C19.7259 18.6029 19.9637 18.2217 20.0872 17.7983C20.2107 17.375 20.2151 16.9257 20.1 16.5C19 13.3 15.8 14.3 11.7 8.3V8.3Z" stroke="#4D535B" stroke-width="2" stroke-miterlimit="10"/>
<g style="mix-blend-mode:darken">
<path d="M15 23L20 30H28L22 19L15 23ZM11.7 8.3C10.715 11.1747 10.6452 14.284 11.5 17.2C13 21.3 16.6 22.2 19.4 18.9C19.7259 18.6029 19.9637 18.2217 20.0872 17.7983C20.2107 17.375 20.2151 16.9257 20.1 16.5C19 13.3 15.8 14.3 11.7 8.3V8.3ZM39 30L50 10L55 13L46 30H39ZM30 30H37L36 18L33 10L30 18V30Z" fill="#4299E1"/>
</g>
</svg>
