<svg width="64" height="64" viewBox="0 0 64 64" fill="none" xmlns="http://www.w3.org/2000/svg">
<path d="M29 9.2C31.2635 9.22632 33.4253 10.144 35.0166 11.754C36.6078 13.3639 37.5002 15.5364 37.5 17.8V31.7C37.5 32.8162 37.2801 33.9215 36.853 34.9528C36.4258 35.9841 35.7997 36.9211 35.0104 37.7104C34.2211 38.4997 33.2841 39.1258 32.2528 39.553C31.2215 39.9801 30.1162 40.2 29 40.2C26.7457 40.2 24.5837 39.3045 22.9896 37.7104C21.3955 36.1163 20.5 33.9543 20.5 31.7V17.8C20.4998 15.5364 21.3922 13.3639 22.9834 11.754C24.5747 10.144 26.7365 9.22632 29 9.2V9.2Z" fill="white"/>
<path d="M28.5 10.2C27.1463 10.2073 25.814 10.5377 24.6138 11.1639C23.4136 11.7901 22.3804 12.6939 21.6 13.8C23.0253 12.7663 24.7394 12.2066 26.5 12.2C31.2 12.2 34 16.1 34 20.8V34.7C34.0219 36.4651 33.4593 38.1879 32.4 39.6C34.6 38.1 37 35.6 37 32.7V18.8C37.0002 16.5364 36.1078 14.3639 34.5166 12.754C32.9253 11.144 30.7635 10.2263 28.5 10.2V10.2Z" fill="#DEE0E2"/>
<path d="M18.1 56.8H39.9M42.3 29.3V32.5C42.2738 36.0193 40.8642 39.387 38.3756 41.8756C35.887 44.3642 32.5193 45.7738 29 45.8C25.4807 45.7738 22.113 44.3642 19.6244 41.8756C17.1358 39.387 15.7262 36.0193 15.7 32.5V29.3H42.3ZM29 45.8V56.3V45.8Z" stroke="#4D535B" stroke-width="2" stroke-miterlimit="10"/>
<path d="M29 9.2C31.2635 9.22632 33.4253 10.144 35.0166 11.754C36.6078 13.3639 37.5002 15.5364 37.5 17.8V31.7C37.5 32.8162 37.2801 33.9215 36.853 34.9528C36.4258 35.9841 35.7997 36.9211 35.0104 37.7104C34.2211 38.4997 33.2841 39.1258 32.2528 39.553C31.2215 39.9801 30.1162 40.2 29 40.2C26.7457 40.2 24.5837 39.3045 22.9896 37.7104C21.3955 36.1163 20.5 33.9543 20.5 31.7V17.8C20.4998 15.5364 21.3922 13.3639 22.9834 11.754C24.5747 10.144 26.7365 9.22632 29 9.2V9.2ZM20.9 17.5H25.7H20.9ZM20.9 22.3H25.7H20.9ZM20.9 27.2H25.7H20.9ZM20.9 32H25.7H20.9ZM32.3 17.5H37.1H32.3ZM32.3 22.3H37.1H32.3ZM32.3 27.2H37.1H32.3ZM32.3 32H37.1H32.3ZM47.8 17.9C48.1434 17.7725 48.5122 17.7288 48.8758 17.7727C49.2395 17.8165 49.5874 17.9465 49.8906 18.1519C50.1939 18.3573 50.4437 18.6322 50.6192 18.9537C50.7948 19.2751 50.8911 19.6338 50.9 20C50.843 20.8335 50.5056 21.6231 49.9428 22.2405C49.3799 22.8578 48.6247 23.2665 47.8 23.4C46.1 23.7 44.7 22.8 44.7 21.2C44.7784 20.3843 45.1253 19.6177 45.6863 19.0205C46.2474 18.4232 46.9908 18.0291 47.8 17.9V17.9Z" stroke="#4D535B" stroke-width="2" stroke-miterlimit="10"/>
<path d="M50.8 10.5L58.1 13.1V8.6L50.8 6V20.7" stroke="#4D535B" stroke-width="2" stroke-miterlimit="10"/>
<g style="mix-blend-mode:darken">
<path d="M47.8 17.9C48.1434 17.7725 48.5122 17.7288 48.8758 17.7726C49.2395 17.8165 49.5874 17.9465 49.8906 18.1519C50.1939 18.3573 50.4437 18.6322 50.6192 18.9537C50.7948 19.2751 50.8911 19.6338 50.9 20C50.843 20.8335 50.5056 21.6231 49.9428 22.2405C49.3799 22.8578 48.6247 23.2665 47.8 23.4C46.1 23.7 44.7 22.8 44.7 21.2C44.7783 20.3843 45.1253 19.6177 45.6863 19.0205C46.2474 18.4232 46.9908 18.0291 47.8 17.9V17.9ZM50.7 10.5L58 13.1V8.6L50.7 6" fill="#4299E1"/>
</g>
</svg>
