<svg width="64" height="64" viewBox="0 0 64 64" fill="none" xmlns="http://www.w3.org/2000/svg">
<path d="M8 21H56V53H8V21Z" fill="white"/>
<path d="M8 21V24H52V53H56V21H8Z" fill="#DEE0E2"/>
<path d="M34.4 27.9L30.5 46.2M25.1 30.9L17.5 37.1L25.1 43.2V30.9ZM38.9 30.9L46.5 37.1L38.9 43.2V30.9Z" stroke="#4D535B" stroke-width="2" stroke-miterlimit="10"/>
<path d="M55.5 20.7H8.5M55.5 11.3H8.5V52.7H55.5V11.3Z" stroke="#4D535B" stroke-width="2" stroke-miterlimit="10"/>
<path d="M49.6 15.4C49.4648 15.3839 49.3277 15.3987 49.1991 15.4433C49.0704 15.4879 48.9536 15.561 48.8573 15.6573C48.761 15.7536 48.6879 15.8704 48.6433 15.9991C48.5987 16.1277 48.5839 16.2648 48.6 16.4C48.6 16.6652 48.7054 16.9196 48.8929 17.1071C49.0804 17.2946 49.3348 17.4 49.6 17.4C49.8577 17.3775 50.0991 17.2649 50.282 17.082C50.4649 16.8991 50.5775 16.6576 50.6 16.4C50.6 16.1348 50.4946 15.8804 50.3071 15.6929C50.1196 15.5054 49.8652 15.4 49.6 15.4V15.4ZM42.9 15.4C42.7648 15.3839 42.6277 15.3987 42.4991 15.4433C42.3704 15.4879 42.2536 15.561 42.1573 15.6573C42.061 15.7536 41.9879 15.8704 41.9433 15.9991C41.8987 16.1277 41.8839 16.2648 41.9 16.4C41.9 16.6652 42.0054 16.9196 42.1929 17.1071C42.3804 17.2946 42.6348 17.4 42.9 17.4C43.1577 17.3775 43.3991 17.2649 43.582 17.082C43.7649 16.8991 43.8775 16.6576 43.9 16.4C43.9 16.1348 43.7946 15.8804 43.6071 15.6929C43.4196 15.5054 43.1652 15.4 42.9 15.4V15.4Z" stroke="#4D535B" stroke-width="2" stroke-miterlimit="10"/>
<g style="mix-blend-mode:darken">
<path d="M8 11H56V21H8V11Z" fill="#4299E1"/>
</g>
</svg>
