<svg width="64" height="64" viewBox="0 0 64 64" fill="none" xmlns="http://www.w3.org/2000/svg">
<path d="M15 17H49V47H15V17Z" fill="white"/>
<path d="M15 17V20H47V47H49V17H15Z" fill="#DEE0E2"/>
<path d="M8 10.9V53.1V10.9ZM14.5 10.9V53.1V10.9ZM8.2 13.5H14.3H8.2ZM8.2 19.7H14.3H8.2ZM8.2 25.8H14.3H8.2ZM8.2 32H14.3H8.2ZM8.2 38.2H14.3H8.2ZM8.2 44.3H14.3H8.2ZM8.2 50.5H14.3H8.2ZM49.5 10.9V53.1V10.9ZM56 10.9V53.1V10.9ZM49.7 13.5H55.8H49.7ZM49.7 19.7H55.8H49.7ZM49.7 25.8H55.8H49.7ZM49.7 32H55.8H49.7ZM49.7 38.2H55.8H49.7ZM49.7 44.3H55.8H49.7ZM49.7 50.5H55.8H49.7ZM15.6 46.7H49.5H15.6ZM15.6 17.3H49.5H15.6ZM27.3 23.9C28.9071 22.9594 30.7574 22.5174 32.6161 22.6299C34.4749 22.7425 36.2583 23.4046 37.7402 24.5322C39.2221 25.6598 40.3357 27.2022 40.9397 28.9636C41.5437 30.7251 41.611 32.6262 41.1329 34.4259C40.6549 36.2257 39.6531 37.8429 38.2546 39.0724C36.8561 40.3019 35.1239 41.0883 33.2777 41.332C31.4316 41.5756 29.5547 41.2654 27.8851 40.4407C26.2156 39.6161 24.8285 38.3141 23.9 36.7C23.2741 35.6385 22.8654 34.4633 22.6977 33.2425C22.5299 32.0217 22.6064 30.7798 22.9228 29.5889C23.2391 28.3979 23.789 27.2817 24.5404 26.3051C25.2919 25.3285 26.2299 24.511 27.3 23.9V23.9Z" stroke="#4D535B" stroke-width="2" stroke-miterlimit="10"/>
<path d="M29.3 27.9V36.7L33.2 34.5L37 32.3L33.2 30.1L29.3 27.9V27.9Z" fill="#4D535B"/>
<g style="mix-blend-mode:darken">
<path d="M8 14H14V50H8V14ZM50 14H56V50H50V14Z" fill="#4299E1"/>
</g>
</svg>
