<svg width="64" height="64" viewBox="0 0 64 64" fill="none" xmlns="http://www.w3.org/2000/svg">
<path d="M39.7 10.8H13.2C12.7757 10.8 12.3687 10.9686 12.0686 11.2686C11.7686 11.5687 11.6 11.9757 11.6 12.4V51.8C11.6 52.2243 11.7686 52.6313 12.0686 52.9314C12.3687 53.2314 12.7757 53.4 13.2 53.4H39.7C40.1243 53.4 40.5313 53.2314 40.8314 52.9314C41.1314 52.6313 41.3 52.2243 41.3 51.8V12.4C41.3 11.9757 41.1314 11.5687 40.8314 11.2686C40.5313 10.9686 40.1243 10.8 39.7 10.8Z" fill="white"/>
<path d="M39.7 10.8H13.2C12.7757 10.8 12.3687 10.9686 12.0686 11.2686C11.7686 11.5687 11.6 11.9757 11.6 12.4V13.8H36.7C37.1243 13.8 37.5313 13.9686 37.8314 14.2686C38.1314 14.5687 38.3 14.9757 38.3 15.4V53.4H39.7C40.1243 53.4 40.5313 53.2314 40.8314 52.9314C41.1314 52.6313 41.3 52.2243 41.3 51.8V12.4C41.3 11.9757 41.1314 11.5687 40.8314 11.2686C40.5313 10.9686 40.1243 10.8 39.7 10.8Z" fill="#DEE0E2"/>
<g style="mix-blend-mode:darken">
<path d="M47 16H52V48.3C52 48.5232 51.956 48.7443 51.8706 48.9506C51.7852 49.1568 51.6599 49.3442 51.5021 49.5021C51.3442 49.6599 51.1568 49.7852 50.9506 49.8706C50.7443 49.956 50.5232 50 50.3 50C49.4248 50 48.5854 49.6523 47.9665 49.0335C47.3477 48.4146 47 47.5752 47 46.7V16Z" fill="#4299E1"/>
</g>
<path d="M39.7 10.8H13.2C12.7757 10.8 12.3687 10.9686 12.0686 11.2686C11.7686 11.5687 11.6 11.9757 11.6 12.4V51.8C11.6 52.2243 11.7686 52.6313 12.0686 52.9314C12.3687 53.2314 12.7757 53.4 13.2 53.4H39.7C40.1243 53.4 40.5313 53.2314 40.8314 52.9314C41.1314 52.6313 41.3 52.2243 41.3 51.8V12.4C41.3 11.9757 41.1314 11.5687 40.8314 11.2686C40.5313 10.9686 40.1243 10.8 39.7 10.8ZM46.9 16.1H52.6V45.8C52.6 51.7 46.9 51.7 46.9 45.8V16.1Z" stroke="#4D535B" stroke-width="2" stroke-miterlimit="10"/>
<path d="M18 41.3H26.4M56.3 31.9L56.4 20.8H46.9L56.3 31.9ZM49.7 53.4V50.2V53.4ZM18 19.4H26.4H18ZM18 27.3H34.9H18ZM18 32H34.9H18ZM18 36.6H34.9H18Z" stroke="#4D535B" stroke-width="2" stroke-miterlimit="10"/>
</svg>
